<?xml version="1.0" encoding="UTF-8"?>
<svg id="Layer_2" data-name="Layer 2" xmlns="http://www.w3.org/2000/svg" viewBox="0 0 14.02 15.22">
  <defs>
    <style>
      .cls-1 {
        fill: #1d3faa;
      }

      .cls-2 {
        font-size: 3.42px;
      }

      .cls-2, .cls-3 {
        fill: #071c5d;
        font-family: Mission-Script, 'Mission Script';
      }

      .cls-3 {
        font-size: 3.14px;
      }

      .cls-4 {
        fill: #fc3;
      }
    </style>
  </defs>
  <g id="Layer_2-2" data-name="Layer 2">
    <rect class="cls-4" width="14.02" height="15.22" rx="1.53" ry="1.53"/>
    <g>
      <path class="cls-1" d="M7.09,9.3c0,.4.13.68.43.77.09-.01.18-.02.26-.02.25,0,.42.08.42.24,0,.18-.2.25-.41.25-.15,0-.3-.02-.43-.07-.62.19-1,.97-1,1.67,0,.6.28,1.12.93,1.12,1.48,0,2.3-1.49,2.45-1.74.07-.12.16-.2.22-.2.04,0,.06.02.06.08,0,.05-.01.12-.05.22-.14.42-1.1,2.5-3.03,2.5-1.16,0-1.67-.88-1.67-1.78,0-1.15.66-1.88,1.43-2.12-.35-.24-.62-.64-.62-1.22,0-1.54,1.32-3.55,2.52-3.55.27,0,.6.16.69.29.49.24.64.68.64,1.19,0,.73-.31,1.59-.33,2.17-.01.29-.35.44-.66.44-.27,0-.52-.12-.52-.37,0-.86.83-1.9.83-2.7,0-.18-.04-.34-.13-.49h-.06c-.78,0-1.98,2.15-1.98,3.35Z"/>
      <path class="cls-1" d="M6.81,7.74c0,.59-.29,1.08-.59,1.26-.16.38-.87.76-1.71.76-.61,0-1.16-.19-2.12-1.1-.08-.08-.13-.17-.13-.28,0-.26.33-.54.71-.54.8,0,.91,1.19,2.26,1.19.73,0,.91-.35.91-.62,0-.97-2.28-1.73-2.28-3.66,0-1.49,1.37-3.62,2.42-3.62.33,0,.71.2.74.36.47.23.61.71.61,1.07,0,.26-.07.71-.33,2.22-.07.41-.26.6-.6.6-.3,0-.57-.14-.57-.58,0-.77.83-1.87.83-2.64,0-.18-.05-.35-.14-.5-.83-.04-1.83,1.79-1.83,2.81,0,1.38,1.8,1.84,1.8,3.29Z"/>
      <text class="cls-2" transform="translate(7.79 5.06) scale(.98 1)"><tspan x="0" y="0">hop</tspan></text>
      <text class="cls-3" transform="translate(8.65 11.3) scale(.98 1)"><tspan x="0" y="0">ase</tspan></text>
    </g>
  </g>
</svg>